<?xml version="1.0" encoding="UTF-8"?> <svg xmlns="http://www.w3.org/2000/svg" xmlns:xlink="http://www.w3.org/1999/xlink" id="Livello_2" data-name="Livello 2" viewBox="0 0 576.51 180.09"><defs><style> .cls-1 { fill: url(#Sfumatura_senza_nome_8); } .cls-2 { fill: url(#Sfumatura_senza_nome_8-3); } .cls-3 { fill: url(#Sfumatura_senza_nome_8-5); } .cls-4 { fill: url(#Sfumatura_senza_nome_8-6); } .cls-5 { fill: url(#Sfumatura_senza_nome_6); } .cls-6 { fill: url(#Sfumatura_senza_nome_7); } .cls-7 { fill: url(#Sfumatura_senza_nome_8-4); } .cls-8 { fill: #0d241b; } .cls-9 { fill: url(#Sfumatura_senza_nome_8-2); } </style><linearGradient id="Sfumatura_senza_nome_8" data-name="Sfumatura senza nome 8" x1="157.19" y1="50.33" x2="157.19" y2="173.21" gradientTransform="translate(0 182) scale(1 -1)" gradientUnits="userSpaceOnUse"><stop offset="0" stop-color="#00c44b"></stop><stop offset="1" stop-color="#1bf291"></stop></linearGradient><linearGradient id="Sfumatura_senza_nome_8-2" data-name="Sfumatura senza nome 8" x1="257.04" y1="50.33" x2="257.04" y2="173.21" xlink:href="#Sfumatura_senza_nome_8"></linearGradient><linearGradient id="Sfumatura_senza_nome_8-3" data-name="Sfumatura senza nome 8" x1="365.22" y1="50.33" x2="365.22" y2="173.21" xlink:href="#Sfumatura_senza_nome_8"></linearGradient><linearGradient id="Sfumatura_senza_nome_8-4" data-name="Sfumatura senza nome 8" x1="445.24" y1="50.33" x2="445.24" y2="173.21" xlink:href="#Sfumatura_senza_nome_8"></linearGradient><linearGradient id="Sfumatura_senza_nome_8-5" data-name="Sfumatura senza nome 8" x1="514.35" y1="50.33" x2="514.35" y2="173.21" xlink:href="#Sfumatura_senza_nome_8"></linearGradient><linearGradient id="Sfumatura_senza_nome_6" data-name="Sfumatura senza nome 6" x1="54.14" y1="168.13" x2="54.14" y2="119" gradientTransform="translate(0 182) scale(1 -1)" gradientUnits="userSpaceOnUse"><stop offset=".18" stop-color="#1bf291"></stop><stop offset=".23" stop-color="#1bf291" stop-opacity=".93"></stop><stop offset=".7" stop-color="#1bf291" stop-opacity=".27"></stop><stop offset=".9" stop-color="#1bf291" stop-opacity="0"></stop></linearGradient><linearGradient id="Sfumatura_senza_nome_7" data-name="Sfumatura senza nome 7" x1="77.87" y1="108.5" x2="77.87" y2="50.5" gradientTransform="translate(0 182) scale(1 -1)" gradientUnits="userSpaceOnUse"><stop offset="0" stop-color="#00c44b" stop-opacity="0"></stop><stop offset=".06" stop-color="#00c44b" stop-opacity=".08"></stop><stop offset=".58" stop-color="#00c44b"></stop></linearGradient><linearGradient id="Sfumatura_senza_nome_8-6" data-name="Sfumatura senza nome 8" x1="53.68" y1="71.28" x2="53.68" y2="153.37" xlink:href="#Sfumatura_senza_nome_8"></linearGradient></defs><g id="Livello_1-2" data-name="Livello 1"><g id="Livello_2-2" data-name="Livello 2"><g id="Livello_1-2" data-name="Livello 1-2"><path class="cls-1" d="M95.42,6.71c-.86-1.61-.26-3.61,1.35-4.47,.56-.3,1.19-.43,1.82-.38h19c1.37,0,2.62,.8,3.17,2.05l35.76,80.09h1.3L193.59,3.9c.57-1.24,1.81-2.02,3.17-2h19c1.81-.17,3.41,1.17,3.58,2.98,.06,.63-.07,1.27-.37,1.83l-57.79,125.36c-.54,1.27-1.79,2.08-3.17,2.05h-1.86c-1.38,.03-2.63-.78-3.17-2.05L95.42,6.71Z"></path><path class="cls-9" d="M215.56,5.4c0-1.95,1.59-3.53,3.54-3.54h75.87c1.96,0,3.54,1.58,3.54,3.54h0v15.28c0,1.96-1.58,3.54-3.54,3.54h-55.19v30.54h46c1.93,.07,3.47,1.61,3.54,3.54v15.46c0,1.96-1.58,3.54-3.54,3.54h-46v32.6h55.19c1.96,0,3.54,1.58,3.54,3.54h0v15.27c0,1.95-1.57,3.53-3.52,3.54,0,0-.01,0-.02,0h-75.87c-1.96,0-3.54-1.58-3.54-3.54V5.4Z"></path><path class="cls-2" d="M310.2,3.35c.08-1.89,1.65-3.37,3.54-3.35h4.66l77.49,82.33h.18V5.4c0-1.96,1.58-3.54,3.54-3.54h17.14c1.93,.07,3.47,1.61,3.54,3.54v125.36c-.08,1.89-1.65,3.38-3.54,3.36h-4.47l-77.86-85.5h-.19v80.09c0,1.95-1.57,3.53-3.52,3.54,0,0-.01,0-.02,0h-17c-1.93-.06-3.48-1.61-3.54-3.54l.05-125.36Z"></path><path class="cls-7" d="M433.03,5.4c.07-1.93,1.61-3.47,3.54-3.54h17.33c1.93,.07,3.47,1.61,3.54,3.54v123.31c-.06,1.93-1.61,3.48-3.54,3.54h-17.33c-1.93-.06-3.48-1.61-3.54-3.54V5.4Z"></path><path class="cls-3" d="M452.61,127.41L510.54,2.05c.55-1.25,1.8-2.04,3.16-2h1.87c1.39-.09,2.68,.74,3.16,2.05l57.38,125.36c.86,1.6,.26,3.59-1.33,4.46-.56,.3-1.2,.44-1.84,.38h-16.21c-2.79,0-4.09-1.12-5.4-3.72l-9.13-20.12h-55.69l-9.13,20.12c-.81,2.27-2.99,3.77-5.4,3.72h-16.21c-1.8,.17-3.4-1.15-3.58-2.95-.06-.67,.08-1.35,.42-1.94Zm80.47-39.68l-18.63-41h-.56l-18.25,41h37.44Z"></path><polygon class="cls-5" points="50.3 39.45 39.17 22.45 97.45 22.45 97.45 1.82 10.83 1.82 10.83 22.42 36.14 61.08 50.3 39.45"></polygon><path class="cls-6" d="M88.74,132.14h8.71v-20.68l-25-38.18-14.16,21.64,10.86,16.58h-1.7c7.73,6.19,14.86,13.1,21.29,20.64Z"></path><path class="cls-4" d="M97.45,111.5H39.18L97.45,22.5l9.52-16.21c.81-1.44,.3-3.27-1.14-4.09-.43-.24-.92-.38-1.42-.38H4.27c-1.66,.03-2.97,1.4-2.94,3.06,0,.48,.13,.95,.36,1.37L10.82,22.45h58.33L10.82,111.53,.36,127.71c-.79,1.46-.25,3.28,1.21,4.07,.43,.23,.91,.36,1.4,.36H104.4c1.66-.03,2.98-1.39,2.95-3.05,0-.5-.14-.99-.39-1.43l-9.51-16.16Z"></path><path class="cls-8" d="M7.62,178.61c-1.79-.94-3.28-2.36-4.32-4.09-3.23-5.31-1.55-12.23,3.76-15.46,.18-.11,.37-.22,.56-.32,1.91-1.01,4.04-1.51,6.2-1.48,2.14-.03,4.26,.48,6.15,1.48,5.49,2.93,7.56,9.75,4.64,15.23-1.05,1.97-2.66,3.58-4.64,4.64-1.9,1.01-4.03,1.52-6.18,1.48-2.15,.03-4.27-.48-6.17-1.48Zm9.73-3.77c1.04-.59,1.9-1.46,2.48-2.51,1.18-2.29,1.18-5.02,0-7.31-.58-1.05-1.44-1.92-2.48-2.51-1.08-.61-2.29-.92-3.53-.9-1.24-.02-2.45,.29-3.53,.9-1.04,.58-1.9,1.44-2.48,2.49-1.2,2.29-1.2,5.02,0,7.31,.57,1.05,1.43,1.92,2.48,2.51,1.08,.61,2.29,.92,3.53,.9,1.23,.02,2.45-.28,3.53-.88Z"></path><path class="cls-8" d="M54.41,157.64v22.07h-4.19l-11-13.4v13.4h-5.06v-22.07h4.23l11,13.4v-13.4h5.02Z"></path><path class="cls-8" d="M64.06,157.64h5.11v17.91h11.07v4.16h-16.18v-22.07Z"></path><path class="cls-8" d="M95.85,171.89v7.82h-5.11v-7.88l-8.54-14.19h5.42l5.9,9.8,5.9-9.8h5l-8.57,14.25Z"></path><path class="cls-8" d="M154.77,175.61v4.1h-17.09v-22.07h16.68v4.1h-11.61v4.79h10.22v4h-10.22v5.11l12.02-.03Z"></path><path class="cls-8" d="M176.97,179.71l-5.33-7.66-5.23,7.66h-5.87l8.17-11.22-7.74-10.85h5.8l5.08,7.16,5-7.16h5.52l-7.69,10.66,8.23,11.41h-5.94Z"></path><path class="cls-8" d="M203.97,158.61c3.94,1.89,5.6,6.63,3.71,10.57-.12,.24-.25,.48-.39,.71-.81,1.23-1.96,2.2-3.32,2.77-1.61,.69-3.35,1.03-5.1,1h-4.44v6.08h-5.11v-22.1h9.55c1.75-.04,3.49,.29,5.1,.97Zm-1.88,9.86c.82-.7,1.26-1.74,1.2-2.82,.07-1.09-.38-2.15-1.2-2.86-1.02-.73-2.25-1.08-3.5-1h-4.16v7.66h4.16c1.23,.08,2.45-.27,3.46-.98h.04Z"></path><path class="cls-8" d="M233.56,175.61v4.1h-17.1v-22.07h16.69v4.1h-11.61v4.79h10.25v4h-10.25v5.11l12.02-.03Z"></path><path class="cls-8" d="M256.11,179.71l-4.26-6.15h-4.7v6.15h-5.11v-22.07h9.56c1.75-.03,3.48,.31,5.09,1,2.81,1.17,4.6,3.96,4.5,7,.13,3.06-1.7,5.87-4.55,7l5,7.09-5.53-.02Zm-1.3-16.92c-1.01-.73-2.25-1.09-3.5-1h-4.16v7.69h4.16c1.25,.09,2.49-.26,3.5-1,1.57-1.55,1.59-4.08,.04-5.66-.01-.01-.03-.03-.04-.04h0Z"></path><path class="cls-8" d="M273.9,161.8h-7.07v-4.16h19.24v4.16h-7.1v17.91h-5.11l.04-17.91Z"></path><path class="cls-8" d="M327.97,171l-3,3.09v5.58h-5.08v-22.03h5.08v10.36l9.78-10.31h5.68l-9.15,9.84,9.69,12.18h-6l-7-8.71Z"></path><path class="cls-8" d="M367.97,157.64v22.07h-4.2l-11-13.4v13.4h-5v-22.07h4.22l11,13.4v-13.4h4.98Z"></path><path class="cls-8" d="M382.06,178.61c-1.79-.94-3.28-2.36-4.32-4.09-3.23-5.31-1.55-12.23,3.76-15.46,.18-.11,.37-.22,.56-.32,3.89-1.97,8.49-1.97,12.38,0,5.49,2.93,7.56,9.75,4.64,15.23-1.05,1.97-2.66,3.58-4.64,4.64-3.89,1.97-8.49,1.97-12.38,0Zm9.73-3.77c1.04-.59,1.9-1.46,2.48-2.51,1.2-2.29,1.2-5.02,0-7.31-.58-1.05-1.44-1.92-2.48-2.51-2.2-1.2-4.86-1.2-7.06,0-1.04,.59-1.9,1.46-2.48,2.51-1.2,2.29-1.2,5.02,0,7.31,.58,1.05,1.44,1.92,2.48,2.51,2.2,1.2,4.86,1.2,7.06,0Z"></path><path class="cls-8" d="M441.25,157.64l-7.23,22.07h-5.48l-4.86-15-5,15h-5.45l-7.26-22.07h5.3l5,15.51,5.21-15.51h4.73l5.05,15.64,5.14-15.64h4.85Z"></path><path class="cls-8" d="M448.5,157.64h5.11v17.91h11.07v4.16h-16.18v-22.07Z"></path><path class="cls-8" d="M489.06,175.61v4.1h-17.09v-22.07h16.68v4.1h-11.61v4.79h10.25v4h-10.25v5.11l12.02-.03Z"></path><path class="cls-8" d="M497.54,157.64h10c2.22-.06,4.42,.4,6.43,1.36,1.77,.85,3.26,2.19,4.29,3.86,2.04,3.6,2.04,8.01,0,11.61-1.03,1.67-2.52,3.01-4.29,3.86-1.98,.95-4.16,1.42-6.36,1.37h-10l-.07-22.06Zm9.78,17.88c1.93,.1,3.83-.57,5.28-1.85,2.65-2.81,2.65-7.19,0-10-1.45-1.28-3.35-1.95-5.28-1.85h-4.67v13.69h4.67Z"></path><path class="cls-8" d="M542.97,168.33h4.67v8.95c-1.26,.94-2.67,1.64-4.17,2.09-1.54,.48-3.15,.72-4.76,.72-2.15,.03-4.27-.47-6.18-1.46-1.78-.94-3.27-2.34-4.31-4.07-2.08-3.65-2.08-8.12,0-11.77,1.04-1.73,2.54-3.14,4.34-4.07,1.93-.99,4.08-1.49,6.25-1.46,1.8-.02,3.59,.32,5.26,1,1.54,.62,2.91,1.59,4,2.84l-3.28,3c-1.46-1.61-3.54-2.52-5.71-2.49-1.3-.03-2.59,.28-3.75,.88-1.07,.57-1.96,1.43-2.56,2.49-.62,1.13-.93,2.4-.91,3.69-.02,1.28,.29,2.54,.91,3.66,.59,1.06,1.47,1.93,2.54,2.51,1.14,.61,2.42,.92,3.71,.9,1.4,0,2.77-.34,4-1l-.05-6.41Z"></path><path class="cls-8" d="M573.84,175.61v4.1h-17.1v-22.07h16.69v4.1h-11.61v4.79h10.25v4h-10.25v5.11l12.02-.03Z"></path></g></g></g></svg> 