<?xml version="1.0" encoding="UTF-8"?> <svg xmlns="http://www.w3.org/2000/svg" xmlns:xlink="http://www.w3.org/1999/xlink" viewBox="0 0 576.51 180.09"><defs><style>.cls-1{fill:url(#Sfumatura_senza_nome_7);}.cls-2{fill:url(#Sfumatura_senza_nome_7-2);}.cls-3{fill:url(#Sfumatura_senza_nome_7-3);}.cls-4{fill:url(#Sfumatura_senza_nome_7-4);}.cls-5{fill:url(#Sfumatura_senza_nome_7-5);}.cls-6{fill:url(#Sfumatura_senza_nome_23);}.cls-7{fill:url(#Sfumatura_senza_nome_27);}.cls-8{fill:url(#Sfumatura_senza_nome_7-6);}.cls-9{fill:#fff;}</style><linearGradient id="Sfumatura_senza_nome_7" x1="157.2" y1="131.67" x2="157.2" y2="8.79" gradientUnits="userSpaceOnUse"><stop offset="0" stop-color="#00c44b"></stop><stop offset="1" stop-color="#1bf291"></stop></linearGradient><linearGradient id="Sfumatura_senza_nome_7-2" x1="257.04" y1="131.67" x2="257.04" y2="8.79" xlink:href="#Sfumatura_senza_nome_7"></linearGradient><linearGradient id="Sfumatura_senza_nome_7-3" x1="365.27" y1="131.67" x2="365.27" y2="8.79" xlink:href="#Sfumatura_senza_nome_7"></linearGradient><linearGradient id="Sfumatura_senza_nome_7-4" x1="445.26" y1="131.67" x2="445.26" y2="8.79" xlink:href="#Sfumatura_senza_nome_7"></linearGradient><linearGradient id="Sfumatura_senza_nome_7-5" x1="514.39" y1="131.67" x2="514.39" y2="8.79" xlink:href="#Sfumatura_senza_nome_7"></linearGradient><linearGradient id="Sfumatura_senza_nome_23" x1="54.17" y1="13.87" x2="54.17" y2="63" gradientUnits="userSpaceOnUse"><stop offset="0.18" stop-color="#1bf291"></stop><stop offset="0.23" stop-color="#1bf291" stop-opacity="0.93"></stop><stop offset="0.7" stop-color="#1bf291" stop-opacity="0.27"></stop><stop offset="0.9" stop-color="#1bf291" stop-opacity="0"></stop></linearGradient><linearGradient id="Sfumatura_senza_nome_27" x1="77.9" y1="73.5" x2="77.9" y2="131.5" gradientUnits="userSpaceOnUse"><stop offset="0.01" stop-color="#00c44b" stop-opacity="0"></stop><stop offset="0.06" stop-color="#00c44b" stop-opacity="0.08"></stop><stop offset="0.58" stop-color="#00c44b"></stop></linearGradient><linearGradient id="Sfumatura_senza_nome_7-6" x1="53.71" y1="110.72" x2="53.71" y2="28.63" xlink:href="#Sfumatura_senza_nome_7"></linearGradient></defs><g id="Livello_2"><g id="Livello_1-2"><path class="cls-1" d="M95.45,6.71a3.3,3.3,0,0,1,3.17-4.85h19a3.44,3.44,0,0,1,3.17,2.05L156.55,84h1.3l35.77-80.1a3.43,3.43,0,0,1,3.17-2h19A3.29,3.29,0,0,1,219,6.71L161.21,132.07a3.36,3.36,0,0,1-3.17,2.05h-1.86a3.36,3.36,0,0,1-3.17-2.05Z"></path><path class="cls-2" d="M215.59,5.4a3.55,3.55,0,0,1,3.54-3.54H295a3.54,3.54,0,0,1,3.54,3.54V20.68A3.54,3.54,0,0,1,295,24.22H239.81V54.76h46a3.67,3.67,0,0,1,3.54,3.54V73.76a3.54,3.54,0,0,1-3.54,3.54h-46v32.6H295a3.54,3.54,0,0,1,3.54,3.54v15.27a3.53,3.53,0,0,1-3.54,3.54H219.13a3.54,3.54,0,0,1-3.54-3.54Z"></path><path class="cls-3" d="M310.23,3.35A3.5,3.5,0,0,1,313.77,0h4.66l77.49,82.33h.18V5.4a3.54,3.54,0,0,1,3.54-3.54h17.14a3.67,3.67,0,0,1,3.54,3.54V130.76a3.51,3.51,0,0,1-3.54,3.36h-4.47l-77.86-85.5h-.19v80.09a3.53,3.53,0,0,1-3.54,3.54h-17a3.66,3.66,0,0,1-3.54-3.54Z"></path><path class="cls-4" d="M433.06,5.4a3.67,3.67,0,0,1,3.54-3.54h17.33a3.67,3.67,0,0,1,3.54,3.54V128.71a3.66,3.66,0,0,1-3.54,3.54H436.6a3.66,3.66,0,0,1-3.54-3.54Z"></path><path class="cls-5" d="M452.64,127.41,510.57,2.05a3.34,3.34,0,0,1,3.16-2h1.87a3.15,3.15,0,0,1,3.16,2.05l57.38,125.36a3.29,3.29,0,0,1-3.17,4.84H556.76c-2.79,0-4.09-1.12-5.4-3.72l-9.13-20.12H486.54l-9.13,20.12a5.61,5.61,0,0,1-5.4,3.72H455.8A3.28,3.28,0,0,1,452.64,127.41Zm80.47-39.68-18.63-41h-.56l-18.25,41Z"></path><polygon class="cls-6" points="50.33 39.45 39.2 22.45 97.48 22.45 97.48 1.82 10.86 1.82 10.86 22.42 36.17 61.08 50.33 39.45"></polygon><path class="cls-7" d="M88.77,132.14h8.71V111.46l-25-38.18L58.32,94.92,69.18,111.5h-1.7A156.87,156.87,0,0,1,88.77,132.14Z"></path><path class="cls-8" d="M97.48,111.5H39.21l58.27-89L107,6.29a3,3,0,0,0-2.56-4.47H4.3A3,3,0,0,0,1.72,6.25l9.13,16.2H69.18L10.85,111.53.39,127.71A3,3,0,0,0,3,132.14H104.43a3,3,0,0,0,2.56-4.48Z"></path><path class="cls-9" d="M7.65,178.61a11,11,0,0,1-4.32-4.09,11.25,11.25,0,0,1,4.32-15.78,12.88,12.88,0,0,1,6.2-1.48A12.77,12.77,0,0,1,20,158.74a11.26,11.26,0,0,1,0,19.87,12.77,12.77,0,0,1-6.18,1.48A12.88,12.88,0,0,1,7.65,178.61Zm9.73-3.77a6.44,6.44,0,0,0,2.48-2.51,8,8,0,0,0,0-7.31,6.44,6.44,0,0,0-2.48-2.51,7,7,0,0,0-3.53-.9,7,7,0,0,0-3.53.9A6.37,6.37,0,0,0,7.84,165a7.87,7.87,0,0,0,0,7.31,6.37,6.37,0,0,0,2.48,2.51,7,7,0,0,0,3.53.9A7,7,0,0,0,17.38,174.84Z"></path><path class="cls-9" d="M54.44,157.64v22.07H50.25l-11-13.4v13.4H34.19V157.64h4.23l11,13.4v-13.4Z"></path><path class="cls-9" d="M64.09,157.64H69.2v17.91H80.27v4.16H64.09Z"></path><path class="cls-9" d="M95.88,171.89v7.82H90.77v-7.88l-8.54-14.19h5.42l5.9,9.8,5.9-9.8h5Z"></path><path class="cls-9" d="M154.8,175.61v4.1H137.71V157.64h16.68v4.1H142.78v4.79H153v4H142.78v5.11Z"></path><path class="cls-9" d="M177,179.71l-5.33-7.66-5.23,7.66h-5.87l8.17-11.22L161,157.64h5.8l5.08,7.16,5-7.16h5.52l-7.69,10.66,8.23,11.41Z"></path><path class="cls-9" d="M204,158.61a7.92,7.92,0,0,1,3.32,11.28,7.4,7.4,0,0,1-3.32,2.77,12.31,12.31,0,0,1-5.1,1h-4.44v6.08h-5.11V157.64h9.55A12.31,12.31,0,0,1,204,158.61Zm-1.88,9.86a3.45,3.45,0,0,0,1.2-2.82,3.5,3.5,0,0,0-1.2-2.86,5.39,5.39,0,0,0-3.5-1h-4.16v7.66h4.16A5.39,5.39,0,0,0,202.08,168.47Z"></path><path class="cls-9" d="M233.59,175.61v4.1h-17.1V157.64h16.69v4.1H221.57v4.79h10.25v4H221.57v5.11Z"></path><path class="cls-9" d="M256.14,179.71l-4.26-6.15h-4.7v6.15h-5.11V157.64h9.56a12.3,12.3,0,0,1,5.09,1,7.32,7.32,0,0,1,4.5,7,7.21,7.21,0,0,1-4.55,7l5,7.09Zm-1.3-16.92a5.35,5.35,0,0,0-3.5-1h-4.16v7.69h4.16a5.29,5.29,0,0,0,3.5-1,4,4,0,0,0,0-5.7Z"></path><path class="cls-9" d="M273.93,161.8h-7.07v-4.16H286.1v4.16H279v17.91h-5.11Z"></path><path class="cls-9" d="M328,171l-3,3.09v5.58h-5.08V157.64H325V168l9.78-10.31h5.68l-9.15,9.84L341,179.71h-6Z"></path><path class="cls-9" d="M368,157.64v22.07h-4.2l-11-13.4v13.4h-5V157.64h4.22l11,13.4v-13.4Z"></path><path class="cls-9" d="M382.09,178.61a11,11,0,0,1-4.32-4.09,11.25,11.25,0,0,1,4.32-15.78,13.68,13.68,0,0,1,12.38,0,11.26,11.26,0,0,1,0,19.87,13.68,13.68,0,0,1-12.38,0Zm9.73-3.77a6.44,6.44,0,0,0,2.48-2.51,7.87,7.87,0,0,0,0-7.31,6.44,6.44,0,0,0-2.48-2.51,7.37,7.37,0,0,0-7.06,0,6.44,6.44,0,0,0-2.48,2.51,7.87,7.87,0,0,0,0,7.31,6.44,6.44,0,0,0,2.48,2.51,7.37,7.37,0,0,0,7.06,0Z"></path><path class="cls-9" d="M441.28,157.64l-7.23,22.07h-5.48l-4.86-15-5,15h-5.45L406,157.64h5.3l5,15.51,5.21-15.51h4.73l5.05,15.64,5.14-15.64Z"></path><path class="cls-9" d="M448.53,157.64h5.11v17.91h11.07v4.16H448.53Z"></path><path class="cls-9" d="M489.09,175.61v4.1H472V157.64h16.68v4.1H477.07v4.79h10.25v4H477.07v5.11Z"></path><path class="cls-9" d="M497.57,157.64h10A14,14,0,0,1,514,159a10.24,10.24,0,0,1,4.29,3.86,11.78,11.78,0,0,1,0,11.61,10.24,10.24,0,0,1-4.29,3.86,14,14,0,0,1-6.36,1.37h-10Zm9.78,17.88a7.4,7.4,0,0,0,5.28-1.85,7.29,7.29,0,0,0,0-10,7.4,7.4,0,0,0-5.28-1.85h-4.67v13.69Z"></path><path class="cls-9" d="M543,168.33h4.67v8.95a13.38,13.38,0,0,1-4.17,2.09,16.21,16.21,0,0,1-4.76.72,13,13,0,0,1-6.18-1.46,11,11,0,0,1-4.31-4.07,11.88,11.88,0,0,1,0-11.77,10.92,10.92,0,0,1,4.34-4.07,13.25,13.25,0,0,1,6.25-1.46,13.65,13.65,0,0,1,5.26,1,10.59,10.59,0,0,1,4,2.84l-3.28,3a7.59,7.59,0,0,0-5.71-2.49,7.75,7.75,0,0,0-3.75.88,6.33,6.33,0,0,0-2.56,2.49,7.37,7.37,0,0,0-.91,3.69,7.26,7.26,0,0,0,.91,3.66,6.45,6.45,0,0,0,2.54,2.51,7.52,7.52,0,0,0,3.71.9,8.29,8.29,0,0,0,4-1Z"></path><path class="cls-9" d="M573.87,175.61v4.1h-17.1V157.64h16.69v4.1H561.85v4.79H572.1v4H561.85v5.11Z"></path></g></g></svg> 