<?xml version="1.0" encoding="UTF-8"?> <svg xmlns="http://www.w3.org/2000/svg" id="Livello_2" data-name="Livello 2" viewBox="0 0 576.51 181.15"><defs><style> .cls-1 { fill: #0d241b; } .cls-1, .cls-2 { stroke-width: 0px; } .cls-2 { fill: #fff; } </style></defs><g id="Livello_1-2" data-name="Livello 1"><g><g id="Livello_1-2" data-name="Livello 1-2"><g><path class="cls-2" d="M80.88,77.65L115.26,15.58v-.46h-28.84c-1.15,0-2.19-1.04-2.19-2.19V3.35c0-1.15,1.04-2.19,2.19-2.19h48.23c1.15,0,2.19,1.04,2.19,2.19v1.5l-33.92,62.88v.23h29.42c1.27,0,2.19,1.04,2.19,2.19v9.58c0,1.15-.92,2.19-2.19,2.19h-49.27c-1.15,0-2.19-1.04-2.19-2.19v-2.08Z"></path><path class="cls-2" d="M142.37,4.15c-.69-1.5.23-3,1.96-3h11.77c1.04,0,1.73.69,1.96,1.27l22.15,49.61h.81L203.18,2.42c.23-.58.92-1.27,1.96-1.27h11.77c1.73,0,2.65,1.5,1.96,3l-35.77,77.65c-.35.69-.92,1.27-1.96,1.27h-1.15c-1.04,0-1.62-.58-1.96-1.27L142.37,4.15Z"></path><path class="cls-2" d="M231.67,3.35c0-1.15.92-2.19,2.19-2.19h46.96c1.27,0,2.19,1.04,2.19,2.19v9.46c0,1.15-.92,2.19-2.19,2.19h-34.15v18.92h28.5c1.15,0,2.19,1.04,2.19,2.19v9.58c0,1.27-1.04,2.19-2.19,2.19h-28.5v20.19h34.15c1.27,0,2.19,1.04,2.19,2.19v9.46c0,1.15-.92,2.19-2.19,2.19h-46.96c-1.27,0-2.19-1.04-2.19-2.19V3.35Z"></path><path class="cls-2" d="M301.82,2.08c0-1.15,1.04-2.08,2.19-2.08h2.88l48,51h.12V3.35c0-1.15.92-2.19,2.19-2.19h10.61c1.15,0,2.19,1.04,2.19,2.19v77.65c0,1.15-1.04,2.08-2.19,2.08h-2.77l-48.23-52.96h-.12v49.61c0,1.15-.92,2.19-2.19,2.19h-10.5c-1.15,0-2.19-1.04-2.19-2.19V2.08Z"></path><path class="cls-2" d="M393.32,3.35c0-1.15,1.04-2.19,2.19-2.19h10.73c1.15,0,2.19,1.04,2.19,2.19v76.38c0,1.15-1.04,2.19-2.19,2.19h-10.73c-1.15,0-2.19-1.04-2.19-2.19V3.35Z"></path><path class="cls-2" d="M421.24,78.92L457.12,1.27c.35-.69.92-1.27,1.96-1.27h1.15c1.15,0,1.62.58,1.96,1.27l35.54,77.65c.69,1.5-.23,3-1.96,3h-10.04c-1.73,0-2.54-.69-3.35-2.31l-5.65-12.46h-34.5l-5.65,12.46c-.46,1.15-1.5,2.31-3.35,2.31h-10.04c-1.73,0-2.65-1.5-1.96-3ZM471.08,54.34l-11.54-25.38h-.35l-11.31,25.38h23.19,0Z"></path><path class="cls-2" d="M100.23,105.64c.11-.86.75-1.61,1.93-1.61h1.71c.86,0,1.5.43,1.82,1.07l23.55,50.52h.32l23.55-50.52c.32-.64.86-1.07,1.82-1.07h1.71c1.18,0,1.82.75,1.93,1.61l12.63,71.93c.32,1.5-.54,2.46-1.93,2.46h-9.74c-.96,0-1.82-.86-2.03-1.61l-6.31-40.57h-.32l-18.73,42.06c-.21.64-.86,1.18-1.82,1.18h-1.93c-.96,0-1.5-.54-1.82-1.18l-18.94-42.06h-.32l-6.21,40.57c-.11.75-.96,1.61-1.93,1.61h-9.63c-1.39,0-2.25-.96-2.03-2.46l12.74-71.93Z"></path><path class="cls-2" d="M187.99,107.13c0-1.07.96-2.03,2.03-2.03h9.95c1.07,0,2.03.96,2.03,2.03v70.86c0,1.07-.96,2.03-2.03,2.03h-9.95c-1.07,0-2.03-.96-2.03-2.03v-70.86Z"></path><path class="cls-2" d="M223.63,105.96c0-1.07.96-1.93,2.03-1.93h2.68l44.53,47.31h.11v-44.2c0-1.07.86-2.03,2.03-2.03h9.85c1.07,0,2.03.96,2.03,2.03v72.03c0,1.07-.96,1.93-2.03,1.93h-2.57l-44.74-49.13h-.11v46.02c0,1.07-.86,2.03-2.03,2.03h-9.74c-1.07,0-2.03-.96-2.03-2.03v-72.03Z"></path><path class="cls-2" d="M308.51,107.13c0-1.07.96-2.03,2.03-2.03h9.95c1.07,0,2.03.96,2.03,2.03v70.86c0,1.07-.96,2.03-2.03,2.03h-9.95c-1.07,0-2.03-.96-2.03-2.03v-70.86Z"></path><path class="cls-2" d="M344.15,105.96c0-1.07.96-1.93,2.03-1.93h2.68l44.53,47.31h.11v-44.2c0-1.07.86-2.03,2.03-2.03h9.85c1.07,0,2.03.96,2.03,2.03v72.03c0,1.07-.96,1.93-2.03,1.93h-2.57l-44.74-49.13h-.11v46.02c0,1.07-.86,2.03-2.03,2.03h-9.74c-1.07,0-2.03-.96-2.03-2.03v-72.03Z"></path><path class="cls-2" d="M462.1,104.03c9.63,0,18.84,3.75,26.12,9.95.86.86.96,2.14.11,3l-6.64,6.96c-.86.86-1.82.86-2.78,0-4.6-4.07-10.28-6.21-16.16-6.21-13.38,0-23.98,11.45-23.98,24.83s10.6,24.51,24.08,24.51c5.99,0,10.6-1.82,12.74-2.68v-9.1h-8.56c-1.18,0-2.03-.86-2.03-1.93v-8.46c0-1.18.86-2.03,2.03-2.03h20.55c1.07,0,1.93.96,1.93,2.03v27.4c0,.86-.43,1.39-.86,1.71,0,0-11.02,6.96-26.54,6.96-21.3,0-38.42-16.91-38.42-38.32s17.13-38.64,38.42-38.64Z"></path></g></g><rect class="cls-1" x="575.56" y="1.06" width=".95" height="180.09"></rect><rect class="cls-1" y="1.06" width=".95" height="180.09"></rect></g></g></svg> 